#!OML:ASF F:\VICON\USERDATA\INSTALL\rory3\rory3.ASF
:FULLY-SPECIFIED
:DEGREES
2080
root 0.0859219 17.7627 -6.53439 -5.84562 30.8913 -6.57608
lowerback 6.88135 -3.63903 -7.85822
upperback -0.561932 -5.52592 -0.949249
thorax -3.79856 -2.58072 3.92381
lowerneck -21.8797 -6.48154 -12.8124
upperneck 24.0426 -7.21512 8.85634
head 12.418 -3.27258 4.25969
rclavicle 9.92929e-014 4.77083e-015
rhumerus 42.9759 -42.2088 -9.1804
rradius 50.8839
rwrist 17.9779
rhand -44.7746 -3.0379
rfingers 7.12502
rthumb -17.5667 -32.2643
lclavicle 9.92929e-014 4.77083e-015
lhumerus 60.7172 33.6324 13.2005
lradius 53.9417
lwrist -11.3494
lhand -34.5482 20.8465
lfingers 7.12502
lthumb -7.70875 -309.314
rfemur -21.7929 -4.583 17.0549
rtibia 25.883
rfoot -2.39519 -15.1904
rtoes -3.13084
lfemur 2.56069 7.84595 -16.321
ltibia 27.1257
lfoot -19.1397 -0.690488
ltoes -10.7226
2081
root 0.0918877 17.7649 -6.4944 -5.76822 30.4203 -6.40412
lowerback 6.91353 -3.58509 -7.91806
upperback -0.566054 -5.46191 -0.93103
thorax -3.82168 -2.54649 3.97358
lowerneck -21.8728 -6.39807 -12.6372
upperneck 24.087 -7.1121 8.68937
head 12.4053 -3.23234 4.18519
rclavicle 1.53064e-014 1.27222e-014
rhumerus 41.877 -42.7141 -9.28453
rradius 49.7516
rwrist 16.9489
rhand -44.4906 -3.97922
rfingers 7.12502
rthumb -17.2935 -33.2298
lclavicle 1.53064e-014 1.27222e-014
lhumerus 59.8456 34.0573 13.6015
lradius 52.3839
lwrist -10.9017
lhand -34.0478 21.787
lfingers 7.12502
lthumb -7.22571 -308.356
rfemur -21.8244 -4.53618 17.2171
rtibia 25.8097
rfoot -2.90873 -15.3088
rtoes -2.14576
lfemur 2.87259 8.08274 -16.3449
ltibia 26.9524
lfoot -19.0351 -0.64376
ltoes -10.9301
2082
root 0.0992803 17.7624 -6.45459 -5.57878 30.0472 -6.12383
lowerback 6.86807 -3.60947 -8.06279
upperback -0.558484 -5.49986 -0.892886
thorax -3.76673 -2.56469 4.09131
lowerneck -21.9798 -6.304 -12.5759
upperneck 24.1376 -6.94725 8.55403
head 12.4165 -3.16863 4.15246
rclavicle -7.25564e-015 -6.36111e-015
rhumerus 40.9542 -43.2416 -9.54719
rradius 48.6851
rwrist 15.9114
rhand -44.1582 -4.69592
rfingers 7.12502
rthumb -16.9735 -33.9743
lclavicle -7.25564e-015 -6.36111e-015
lhumerus 58.8272 34.5874 14.1036
lradius 50.7935
lwrist -10.7251
lhand -33.3869 22.4088
lfingers 7.12502
lthumb -6.58772 -307.714
rfemur -21.8231 -4.79453 17.3203
rtibia 25.76
rfoot -3.67625 -15.2615
rtoes 1.38751
lfemur 3.11906 8.1429 -16.5279
ltibia 26.8002
lfoot -19.029 -0.62559
ltoes -10.3998
2083
root 0.108454 17.7529 -6.41904 -5.35306 29.7262 -5.87804
lowerback 6.78992 -3.65224 -8.0787
upperback -0.546517 -5.54918 -0.876975
thorax -3.70093 -2.59218 4.11312
lowerneck -22.0765 -6.19546 -12.5762
upperneck 24.058 -6.76353 8.52143
head 12.379 -3.08823 4.17057
rclavicle 1.94809e-014 2.70347e-014
rhumerus 39.882 -43.8378 -9.74176
rradius 47.6618
rwrist 14.9499
rhand -43.7966 -4.93198
rfingers 7.12502
rthumb -16.6254 -34.2399
lclavicle 1.94809e-014 2.70347e-014
lhumerus 57.9472 35.1625 14.8322
lradius 49.1519
lwrist -10.8582
lhand -32.7742 22.0324
lfingers 7.12502
lthumb -5.99624 -308.072
rfemur -21.904 -5.33916 17.5193
rtibia 25.7229
rfoot -4.18847 -14.9066
rtoes 3.56752
lfemur 3.26483 8.02273 -16.7752
ltibia 26.6732
lfoot -19.0689 -0.346628
ltoes -10.5092
2084
root 0.119177 17.7487 -6.38459 -5.01102 29.3942 -5.59177
lowerback 6.702 -3.64729 -8.07379
upperback -0.613074 -5.53928 -0.921955
thorax -3.72761 -2.58478 4.0591
lowerneck -22.0743 -6.11323 -12.4509
upperneck 24.005 -6.67775 8.48615
head 12.3396 -3.04244 4.15028
rclavicle 1.80894e-014 9.54166e-015
rhumerus 38.4468 -44.4006 -9.71712
rradius 46.6838
rwrist 14.119
rhand -43.3193 -5.11097
rfingers 7.12502
rthumb -16.1658 -34.4568
lclavicle 1.80894e-014 9.54166e-015
lhumerus 57.1757 35.6513 15.6736
lradius 47.5735
lwrist -10.8843
lhand -32.6027 23.6276
lfingers 7.12502
lthumb -5.83061 -306.473
rfemur -22.1839 -5.8469 17.662
rtibia 25.6878
rfoot -4.44564 -14.5275
rtoes 3.69915
lfemur 3.28011 7.99408 -17.0776
ltibia 26.5798
lfoot -19.0024 -0.0614787
ltoes -11.0468
2085
root 0.128722 17.7514 -6.34717 -4.75536 29.032 -5.41873
lowerback 6.70364 -3.64622 -8.0135
upperback -0.725477 -5.53965 -0.901487
thorax -3.85004 -2.57779 4.05289
lowerneck -22.0389 -6.03001 -12.4189
upperneck 24.0579 -6.57156 8.46526
head 12.3377 -2.99627 4.15806
rclavicle -9.0944e-015 -1.59028e-015
rhumerus 36.9624 -44.8156 -9.6761
rradius 45.7867
rwrist 13.4694
rhand -43.1759 -5.39632
rfingers 7.12502
rthumb -16.0278 -34.7534
lclavicle -9.0944e-015 -1.59028e-015
lhumerus 56.0931 36.1273 16.2601
lradius 46.0844
lwrist -10.5289
lhand -32.518 25.1227
lfingers 7.12502
lthumb -5.74884 -304.975
rfemur -22.4325 -6.21689 17.9057
rtibia 25.6108
rfoot -4.691 -14.3302
rtoes 4.62103
lfemur 3.33863 8.07677 -17.2262
ltibia 26.4951
lfoot -18.9395 0.142012
ltoes -11.3826
2086
root 0.134953 17.7531 -6.30986 -4.53053 28.7898 -5.21152
lowerback 6.75146 -3.71556 -8.0326
upperback -0.745358 -5.63762 -0.852106
thorax -3.87889 -2.62378 4.12659
lowerneck -22.1332 -5.92987 -12.4553
upperneck 23.9501 -6.40082 8.48165
head 12.2942 -2.91839 4.19805
rclavicle -5.11871e-014 6.36111e-015
rhumerus 35.8779 -45.3958 -10.0149
rradius 44.8402
rwrist 13.0563
rhand -43.4727 -5.26659
rfingers 7.12502
rthumb -16.3135 -34.6004
lclavicle -5.11871e-014 6.36111e-015
lhumerus 55.0116 36.8683 16.9092
lradius 44.5487
lwrist -10.1898
lhand -31.8218 26.1384
lfingers 7.12502
lthumb -5.07667 -303.942
rfemur -22.6009 -6.58466 18.0964
rtibia 25.4937
rfoot -4.89707 -14.2728
rtoes 5.37926
lfemur 3.39775 8.07609 -17.43
ltibia 26.3807
lfoot -18.8652 0.503792
ltoes -12.1931
2087
root 0.139603 17.7549 -6.26825 -4.32505 28.542 -5.04115
lowerback 6.7262 -3.76802 -8.03647
upperback -0.720617 -5.70242 -0.812336
thorax -3.82601 -2.65874 4.17122
lowerneck -22.2593 -5.85335 -12.4318
upperneck 23.7701 -6.27572 8.49176
head 12.2316 -2.85448 4.21489
rclavicle 1.26477e-013 9.54166e-015
rhumerus 34.6352 -45.994 -10.1988
rradius 43.9402
rwrist 12.4929
rhand -43.4766 -5.47109
rfingers 7.12502
rthumb -16.3173 -34.8046
lclavicle 1.26477e-013 9.54166e-015
lhumerus 54.0543 37.6787 17.6243
lradius 43.021
lwrist -9.78761
lhand -30.8998 27.1909
lfingers 7.12502
lthumb -4.18635 -302.871
rfemur -22.7666 -6.85473 18.3052
rtibia 25.3517
rfoot -5.25802 -14.3036
rtoes 5.58317
lfemur 3.4624 8.00254 -17.6173
ltibia 26.2538
lfoot -18.8383 1.01199
ltoes -13.1652
2088
root 0.14604 17.7557 -6.22255 -4.20102 28.2066 -4.95316
lowerback 6.73677 -3.76553 -7.94014
upperback -0.729199 -5.69257 -0.795698
thorax -3.84943 -2.65473 4.1363
lowerneck -22.3194 -5.78564 -12.2853
upperneck 23.6093 -6.21212 8.4807
head 12.1659 -2.811 4.19279
rclavicle 8.32411e-014 6.36111e-015
rhumerus 33.1086 -46.5122 -10.2149
rradius 43.1194
rwrist 11.9416
rhand -42.9037 -6.07902
rfingers 7.12502
rthumb -15.7656 -35.4569
lclavicle 8.32411e-014 6.36111e-015
lhumerus 53.0214 38.3655 18.175
lradius 41.5594
lwrist -9.35274
lhand -29.9371 28.4175
lfingers 7.12502
lthumb -3.25672 -301.628
rfemur -22.8913 -7.13557 18.6375
rtibia 25.2267
rfoot -5.62746 -14.2824
rtoes 7.01506
lfemur 3.64766 8.07244 -17.6793
ltibia 26.1036
lfoot -18.8676 1.38739
ltoes -13.7358
2089
root 0.15235 17.7571 -6.17853 -4.00355 27.8669 -4.84461
lowerback 6.73447 -3.75439 -7.86635
upperback -0.774322 -5.67351 -0.768149
thorax -3.90193 -2.64335 4.12512
lowerneck -22.3351 -5.74184 -12.1829
upperneck 23.4239 -6.18892 8.52993
head 12.0913 -2.78278 4.19393
rclavicle 2.49972e-014 1.59028e-014
rhumerus 31.5285 -47.0019 -10.1327
rradius 42.1929
rwrist 11.6265
rhand -42.8261 -5.83233
rfingers 7.12502
rthumb -15.6909 -35.2161
lclavicle 2.49972e-014 1.59028e-014
lhumerus 52.0023 39.0762 18.7897
lradius 40.1464
lwrist -9.03207
lhand -28.9116 29.2738
lfingers 7.12502
lthumb -2.26633 -300.758
rfemur -23.0758 -7.49671 18.9832
rtibia 25.0934
rfoot -5.68824 -14.3117
rtoes 5.13377
lfemur 3.75286 8.17715 -17.778
ltibia 25.9425
lfoot -18.839 1.72911
ltoes -14.1109
